{
    "asset" : {
        "generator" : "Khronos glTF Blender I/O v1.0.5",
        "version" : "2.0"
    },
    "scene" : 0,
    "scenes" : [
        {
            "name" : "Scene",
            "nodes" : [
                0
            ]
        }
    ],
    "nodes" : [
        {
            "mesh" : 0,
            "name" : "Cube",
            "scale" : [
                1.574618935585022,
                0.9009780883789062,
                1
            ],
            "translation" : [
                0,
                0.9111425280570984,
                0
            ]
        }
    ],
    "materials" : [
        {
            "doubleSided" : true,
            "name" : "Material",
            "pbrMetallicRoughness" : {
                "baseColorTexture" : {
                    "index" : 0,
                    "texCoord" : 0
                },
                "metallicFactor" : 0,
                "roughnessFactor" : 0.4000000059604645
            }
        }
    ],
    "meshes" : [
        {
            "name" : "Cube",
            "primitives" : [
                {
                    "attributes" : {
                        "POSITION" : 0,
                        "NORMAL" : 1,
                        "TEXCOORD_0" : 2
                    },
                    "indices" : 3,
                    "material" : 0
                }
            ]
        }
    ],
    "textures" : [
        {
            "source" : 0
        }
    ],
    "images" : [
        {
            "bufferView" : 4,
            "mimeType" : "image/png",
            "name" : "blank_UV_layout_ULD (2)"
        }
    ],
    "accessors" : [
        {
            "bufferView" : 0,
            "componentType" : 5126,
            "count" : 276,
            "max" : [
                1,
                1.0431149005889893,
                1
            ],
            "min" : [
                -1.7577183246612549,
                -1,
                -1.0370986461639404
            ],
            "type" : "VEC3"
        },
        {
            "bufferView" : 1,
            "componentType" : 5126,
            "count" : 276,
            "type" : "VEC3"
        },
        {
            "bufferView" : 2,
            "componentType" : 5126,
            "count" : 276,
            "type" : "VEC2"
        },
        {
            "bufferView" : 3,
            "componentType" : 5123,
            "count" : 600,
            "type" : "SCALAR"
        }
    ],
    "bufferViews" : [
        {
            "buffer" : 0,
            "byteLength" : 3312,
            "byteOffset" : 0
        },
        {
            "buffer" : 0,
            "byteLength" : 3312,
            "byteOffset" : 3312
        },
        {
            "buffer" : 0,
            "byteLength" : 2208,
            "byteOffset" : 6624
        },
        {
            "buffer" : 0,
            "byteLength" : 1200,
            "byteOffset" : 8832
        },
        {
            "buffer" : 0,
            "byteLength" : 2383154,
            "byteOffset" : 10032
        }
    ],
    "buffers" : [
        {
            "byteLength" : 2393188,
            "uri" : "data:application/octet-stream;base64,"
        }
    ]
}
